<?xml version="1.0" encoding="utf-8"?>
<!-- Generator: Adobe Illustrator 23.0.3, SVG Export Plug-In . SVG Version: 6.00 Build 0)  -->
<svg version="1.1" id="Layer_1" xmlns="http://www.w3.org/2000/svg" xmlns:xlink="http://www.w3.org/1999/xlink" x="0px" y="0px"
	 viewBox="0 0 150 150" style="enable-background:new 0 0 150 150;" xml:space="preserve">
<g>
	<g>
		<g>
			<polygon style="fill:#141313;" points="115.7,55 119.2,97.5 132.9,98.2 136,96.6 132.7,95.6 127.4,31.3 60.4,25.8 60,20.7 
				59.4,19.9 57.9,25.6 58.7,36.8 107.3,40.8 51.6,96.4 25.1,122.9 23.1,121.2 23.8,124.3 35.2,135.7 			"/>
		</g>
		<g>
			<polygon style="fill:#B5A3A1;" points="117.6,48.8 121.4,95 135.1,96 129.5,26.5 59.9,20.8 60.9,34.5 107.1,38.3 53.7,91.6 
				23.9,121.4 34.4,132 			"/>
			<path style="fill:#141313;" d="M59.2,20l70.9,5.8l5.8,70.9l-15.1-1.1l-3.7-45.2l-82.6,82.6l-11.6-11.6l82.6-82.5l-45.2-3.7
				L59.2,20z M128.8,27.1l-68.2-5.6l0.9,12.4l47.1,3.8l-83.9,83.8l9.5,9.5l83.8-83.8l3.8,47.1l12.4,0.9L128.8,27.1z"/>
		</g>
	</g>
	<g>
		<path style="fill:#141313;" d="M78.6,77.3"/>
	</g>
</g>
</svg>
