<svg version="1.1" xmlns="http://www.w3.org/2000/svg" xmlns:xlink="http://www.w3.org/1999/xlink" x="0px" y="0px"
	 viewBox="0 0 256 224" style="enable-background:new 0 0 256 224;" xml:space="preserve">
<style type="text/css">
	.st0{display:none;}
	.st1{display:inline;}
	.st2{fill:#50027D;}
	.st3{fill:#A067C9;}
	.st4{fill:#A89C98;}
	.st5{fill:#141313;}
</style>
<g id="Layer_1" class="st0">
	<g id="EvNy95.tif" class="st1">
		
			<image style="overflow:visible;" width="511" height="511" id="Layer_0_4_" xlink:href="D4B4DD007A564F94.png"  transform="matrix(0.456 0 0 0.456 7.5 2.5)">
		</image>
	</g>
</g>
<g id="Layer_2">
	<g>
		<rect x="229.5" y="139.8" class="st2" width="10.7" height="10.7"/>
		<rect x="229.5" y="172" class="st2" width="10.7" height="10.7"/>
		<rect x="229.5" y="161.2" class="st2" width="10.7" height="10.7"/>
		<rect x="229.5" y="150.5" class="st2" width="10.7" height="10.7"/>
		<rect x="218.8" y="161.2" class="st2" width="10.7" height="10.7"/>
		<rect x="218.8" y="172" class="st2" width="10.7" height="10.7"/>
		<rect x="218.8" y="150.5" class="st2" width="10.7" height="10.7"/>
		<rect x="218.8" y="129" class="st2" width="10.7" height="10.7"/>
		<rect x="218.8" y="182.7" class="st2" width="10.7" height="10.7"/>
		<rect x="218.8" y="139.8" class="st2" width="10.7" height="10.7"/>
		<rect x="208.1" y="150.5" class="st2" width="10.7" height="10.7"/>
		<rect x="208.1" y="172" class="st2" width="10.7" height="10.7"/>
		<rect x="208.1" y="118.3" class="st2" width="10.7" height="10.7"/>
		<rect x="208.1" y="139.8" class="st2" width="10.7" height="10.7"/>
		<rect x="208.1" y="161.2" class="st2" width="10.7" height="10.7"/>
		<rect x="208.1" y="182.7" class="st2" width="10.7" height="10.7"/>
		<rect x="208.1" y="129" class="st2" width="10.7" height="10.7"/>
		<rect x="47.9" y="129" class="st2" width="10.7" height="10.7"/>
		<rect x="47.9" y="172" class="st2" width="10.7" height="10.7"/>
		<rect x="37.2" y="139.8" class="st2" width="10.7" height="10.7"/>
		<rect x="37.2" y="129" class="st2" width="10.7" height="10.7"/>
		<rect x="47.9" y="161.2" class="st2" width="10.7" height="10.7"/>
		<rect x="47.9" y="182.7" class="st2" width="10.7" height="10.7"/>
		<rect x="47.9" y="150.5" class="st2" width="10.7" height="10.7"/>
		<rect x="37.2" y="161.2" class="st2" width="10.7" height="10.7"/>
		<rect x="37.2" y="172" class="st2" width="10.7" height="10.7"/>
		<rect x="37.2" y="150.5" class="st2" width="10.7" height="10.7"/>
		<rect x="37.2" y="182.7" class="st2" width="10.7" height="10.7"/>
		<rect x="47.9" y="139.8" class="st2" width="10.7" height="10.7"/>
		<rect x="26.5" y="172" class="st2" width="10.7" height="10.7"/>
		<rect x="26.5" y="161.2" class="st2" width="10.7" height="10.7"/>
		<rect x="26.5" y="150.5" class="st2" width="10.7" height="10.7"/>
		<rect x="26.5" y="139.8" class="st2" width="10.7" height="10.7"/>
	</g>
</g>
<g id="Layer_5">
	<g>
		<rect x="197.5" y="118.3" class="st3" width="10.7" height="10.7"/>
		<rect x="197.5" y="193.4" class="st3" width="10.7" height="10.7"/>
		<rect x="197.5" y="150.5" class="st3" width="10.7" height="10.7"/>
		<rect x="208.1" y="193.4" class="st3" width="10.7" height="10.7"/>
		<rect x="197.5" y="161.2" class="st3" width="10.7" height="10.7"/>
		<rect x="197.5" y="139.8" class="st3" width="10.7" height="10.7"/>
		<rect x="197.5" y="129" class="st3" width="10.7" height="10.7"/>
		<rect x="197.5" y="172" class="st3" width="10.7" height="10.7"/>
		<rect x="197.5" y="182.7" class="st3" width="10.7" height="10.7"/>
		<rect x="47.9" y="193.4" class="st3" width="10.7" height="10.7"/>
		<rect x="37.2" y="193.4" class="st3" width="10.7" height="10.7"/>
		<rect x="26.5" y="182.7" class="st3" width="10.7" height="10.7"/>
		<rect x="15.8" y="172" class="st3" width="10.7" height="10.7"/>
		<rect x="15.8" y="161.2" class="st3" width="10.7" height="10.7"/>
		<rect x="15.8" y="150.5" class="st3" width="10.7" height="10.7"/>
		<rect x="15.8" y="139.8" class="st3" width="10.7" height="10.7"/>
		<rect x="26.5" y="129" class="st3" width="10.7" height="10.7"/>
		<rect x="37.2" y="118.3" class="st3" width="10.7" height="10.7"/>
		<rect x="47.9" y="118.3" class="st3" width="10.7" height="10.7"/>
	</g>
</g>
<g id="Layer_4">
	<g>
		<rect x="176.1" y="118.3" class="st4" width="10.7" height="10.7"/>
		<rect x="176.1" y="161.2" class="st4" width="10.7" height="10.7"/>
		<rect x="176.1" y="172" class="st4" width="10.7" height="10.7"/>
		<rect x="176.1" y="182.7" class="st4" width="10.7" height="10.7"/>
		<rect x="176.1" y="150.5" class="st4" width="10.7" height="10.7"/>
		<rect x="176.1" y="193.4" class="st4" width="10.7" height="10.7"/>
		<rect x="176.1" y="139.8" class="st4" width="10.7" height="10.7"/>
		<rect x="176.1" y="129" class="st4" width="10.7" height="10.7"/>
		<rect x="69.2" y="129" class="st4" width="10.7" height="10.7"/>
		<rect x="69.2" y="139.8" class="st4" width="10.7" height="10.7"/>
		<rect x="69.2" y="193.4" class="st4" width="10.7" height="10.7"/>
		<rect x="69.2" y="182.7" class="st4" width="10.7" height="10.7"/>
		<rect x="69.2" y="161.2" class="st4" width="10.7" height="10.7"/>
		<rect x="69.2" y="150.5" class="st4" width="10.7" height="10.7"/>
		<rect x="69.2" y="172" class="st4" width="10.7" height="10.7"/>
		<rect x="69.2" y="118.3" class="st4" width="10.7" height="10.7"/>
		<rect x="197.5" y="86.1" class="st4" width="10.7" height="10.7"/>
		<rect x="197.5" y="96.8" class="st4" width="10.7" height="10.7"/>
		<rect x="197.5" y="75.4" class="st4" width="10.7" height="10.7"/>
		<rect x="186.8" y="64.7" class="st4" width="10.7" height="10.7"/>
		<rect x="186.8" y="75.4" class="st4" width="10.7" height="10.7"/>
		<rect x="176.1" y="43.2" class="st4" width="10.7" height="10.7"/>
		<rect x="176.1" y="53.9" class="st4" width="10.7" height="10.7"/>
		<rect x="176.1" y="64.7" class="st4" width="10.7" height="10.7"/>
		<rect x="176.1" y="32.5" class="st4" width="10.7" height="10.7"/>
		<rect x="165.4" y="21.7" class="st4" width="10.7" height="10.7"/>
		<rect x="165.4" y="32.5" class="st4" width="10.7" height="10.7"/>
		<rect x="144" y="21.7" class="st4" width="10.7" height="10.7"/>
		<rect x="154.7" y="21.7" class="st4" width="10.7" height="10.7"/>
		<rect x="133.3" y="21.7" class="st4" width="10.7" height="10.7"/>
		<rect x="122.7" y="21.7" class="st4" width="10.7" height="10.7"/>
		<rect x="112" y="21.7" class="st4" width="10.7" height="10.7"/>
		<rect x="90.6" y="21.7" class="st4" width="10.7" height="10.7"/>
		<rect x="101.3" y="21.7" class="st4" width="10.7" height="10.7"/>
		<rect x="79.9" y="21.7" class="st4" width="10.7" height="10.7"/>
		<rect x="69.2" y="32.5" class="st4" width="10.7" height="10.7"/>
		<rect x="69.2" y="53.9" class="st4" width="10.7" height="10.7"/>
		<rect x="69.2" y="64.7" class="st4" width="10.7" height="10.7"/>
		<rect x="69.2" y="43.2" class="st4" width="10.7" height="10.7"/>
		<rect x="79.9" y="32.5" class="st4" width="10.7" height="10.7"/>
		<rect x="58.5" y="64.7" class="st4" width="10.7" height="10.7"/>
		<rect x="58.5" y="75.4" class="st4" width="10.7" height="10.7"/>
		<rect x="47.9" y="86.1" class="st4" width="10.7" height="10.7"/>
		<rect x="47.9" y="96.8" class="st4" width="10.7" height="10.7"/>
		<rect x="47.9" y="75.4" class="st4" width="10.7" height="10.7"/>
	</g>
</g>
<g id="Layer_3">
	<g>
		<rect x="79.9" y="139.8" class="st5" width="10.7" height="10.7"/>
		<rect x="26.5" y="204.2" class="st5" width="10.7" height="10.7"/>
		<g>
			<rect x="165.4" y="11" class="st5" width="10.7" height="10.7"/>
			<rect x="154.7" y="11" class="st5" width="10.7" height="10.7"/>
			<rect x="144" y="11" class="st5" width="10.7" height="10.7"/>
			<rect x="133.3" y="11" class="st5" width="10.7" height="10.7"/>
			<rect x="112" y="11" class="st5" width="10.7" height="10.7"/>
			<rect x="122.7" y="11" class="st5" width="10.7" height="10.7"/>
			<rect x="90.6" y="11" class="st5" width="10.7" height="10.7"/>
			<rect x="101.3" y="11" class="st5" width="10.7" height="10.7"/>
			<rect x="79.9" y="11" class="st5" width="10.7" height="10.7"/>
			<rect x="176.1" y="21.7" class="st5" width="10.7" height="10.7"/>
			<rect x="186.8" y="53.9" class="st5" width="10.7" height="10.7"/>
			<rect x="186.8" y="32.5" class="st5" width="10.7" height="10.7"/>
			<rect x="186.8" y="43.2" class="st5" width="10.7" height="10.7"/>
			<rect x="197.5" y="64.7" class="st5" width="10.7" height="10.7"/>
			<rect x="208.1" y="96.8" class="st5" width="10.7" height="10.7"/>
			<rect x="208.1" y="86.1" class="st5" width="10.7" height="10.7"/>
			<rect x="208.1" y="75.4" class="st5" width="10.7" height="10.7"/>
			<rect x="186.8" y="150.5" class="st5" width="10.7" height="10.7"/>
			<rect x="186.8" y="129" class="st5" width="10.7" height="10.7"/>
			<rect x="186.8" y="118.3" class="st5" width="10.7" height="10.7"/>
			<rect x="186.8" y="161.2" class="st5" width="10.7" height="10.7"/>
			<rect x="186.8" y="182.7" class="st5" width="10.7" height="10.7"/>
			<rect x="186.8" y="139.8" class="st5" width="10.7" height="10.7"/>
			<rect x="186.8" y="193.4" class="st5" width="10.7" height="10.7"/>
			<rect x="186.8" y="172" class="st5" width="10.7" height="10.7"/>
			<rect x="240.2" y="161.2" class="st5" width="10.7" height="10.7"/>
			<rect x="240.2" y="182.7" class="st5" width="10.7" height="10.7"/>
			<rect x="240.2" y="172" class="st5" width="10.7" height="10.7"/>
			<rect x="229.5" y="129" class="st5" width="10.7" height="10.7"/>
			<rect x="240.2" y="139.8" class="st5" width="10.7" height="10.7"/>
			<rect x="240.2" y="129" class="st5" width="10.7" height="10.7"/>
			<rect x="240.2" y="150.5" class="st5" width="10.7" height="10.7"/>
			<rect x="229.5" y="182.7" class="st5" width="10.7" height="10.7"/>
			<rect x="229.5" y="193.4" class="st5" width="10.7" height="10.7"/>
			<rect x="218.8" y="118.3" class="st5" width="10.7" height="10.7"/>
			<rect x="218.8" y="204.2" class="st5" width="10.7" height="10.7"/>
			<rect x="229.5" y="118.3" class="st5" width="10.7" height="10.7"/>
			<rect x="218.8" y="107.6" class="st5" width="10.7" height="10.7"/>
			<rect x="218.8" y="193.4" class="st5" width="10.7" height="10.7"/>
			<rect x="208.1" y="204.2" class="st5" width="10.7" height="10.7"/>
			<rect x="197.5" y="107.6" class="st5" width="10.7" height="10.7"/>
			<rect x="208.1" y="107.6" class="st5" width="10.7" height="10.7"/>
			<rect x="197.5" y="204.2" class="st5" width="10.7" height="10.7"/>
			<rect x="186.8" y="107.6" class="st5" width="10.7" height="10.7"/>
			<rect x="186.8" y="204.2" class="st5" width="10.7" height="10.7"/>
			<rect x="176.1" y="107.6" class="st5" width="10.7" height="10.7"/>
			<rect x="165.4" y="193.4" class="st5" width="10.7" height="10.7"/>
			<rect x="165.4" y="204.2" class="st5" width="10.7" height="10.7"/>
			<rect x="176.1" y="204.2" class="st5" width="10.7" height="10.7"/>
			<rect x="165.4" y="150.5" class="st5" width="10.7" height="10.7"/>
			<rect x="165.4" y="139.8" class="st5" width="10.7" height="10.7"/>
			<rect x="165.4" y="172" class="st5" width="10.7" height="10.7"/>
			<rect x="165.4" y="182.7" class="st5" width="10.7" height="10.7"/>
			<rect x="165.4" y="161.2" class="st5" width="10.7" height="10.7"/>
			<rect x="165.4" y="129" class="st5" width="10.7" height="10.7"/>
			<rect x="165.4" y="118.3" class="st5" width="10.7" height="10.7"/>
			<rect x="165.4" y="107.6" class="st5" width="10.7" height="10.7"/>
			<rect x="79.9" y="118.3" class="st5" width="10.7" height="10.7"/>
			<rect x="69.2" y="204.2" class="st5" width="10.7" height="10.7"/>
			<rect x="79.9" y="150.5" class="st5" width="10.7" height="10.7"/>
			<rect x="79.9" y="129" class="st5" width="10.7" height="10.7"/>
			<rect x="79.9" y="182.7" class="st5" width="10.7" height="10.7"/>
			<rect x="79.9" y="204.2" class="st5" width="10.7" height="10.7"/>
			<rect x="79.9" y="161.2" class="st5" width="10.7" height="10.7"/>
			<rect x="79.9" y="172" class="st5" width="10.7" height="10.7"/>
			<rect x="79.9" y="193.4" class="st5" width="10.7" height="10.7"/>
			<rect x="69.2" y="107.6" class="st5" width="10.7" height="10.7"/>
			<rect x="79.9" y="107.6" class="st5" width="10.7" height="10.7"/>
			<rect x="58.5" y="193.4" class="st5" width="10.7" height="10.7"/>
			<rect x="37.2" y="204.2" class="st5" width="10.7" height="10.7"/>
			<rect x="37.2" y="107.6" class="st5" width="10.7" height="10.7"/>
			<rect x="58.5" y="107.6" class="st5" width="10.7" height="10.7"/>
			<rect x="58.5" y="118.3" class="st5" width="10.7" height="10.7"/>
			<rect x="58.5" y="182.7" class="st5" width="10.7" height="10.7"/>
			<rect x="58.5" y="129" class="st5" width="10.7" height="10.7"/>
			<rect x="58.5" y="172" class="st5" width="10.7" height="10.7"/>
			<rect x="58.5" y="150.5" class="st5" width="10.7" height="10.7"/>
			<rect x="58.5" y="161.2" class="st5" width="10.7" height="10.7"/>
			<rect x="58.5" y="139.8" class="st5" width="10.7" height="10.7"/>
			<rect x="58.5" y="204.2" class="st5" width="10.7" height="10.7"/>
			<rect x="47.9" y="204.2" class="st5" width="10.7" height="10.7"/>
			<rect x="47.9" y="107.6" class="st5" width="10.7" height="10.7"/>
			<rect x="26.5" y="193.4" class="st5" width="10.7" height="10.7"/>
			<rect x="26.5" y="118.3" class="st5" width="10.7" height="10.7"/>
			<rect x="26.5" y="107.6" class="st5" width="10.7" height="10.7"/>
			<rect x="15.8" y="193.4" class="st5" width="10.7" height="10.7"/>
			<rect x="15.8" y="182.7" class="st5" width="10.7" height="10.7"/>
			<rect x="15.8" y="129" class="st5" width="10.7" height="10.7"/>
			<rect x="15.8" y="118.3" class="st5" width="10.7" height="10.7"/>
			<rect x="5.1" y="182.7" class="st5" width="10.7" height="10.7"/>
			<rect x="5.1" y="172" class="st5" width="10.7" height="10.7"/>
			<rect x="5.1" y="161.2" class="st5" width="10.7" height="10.7"/>
			<rect x="5.1" y="150.5" class="st5" width="10.7" height="10.7"/>
			<rect x="5.1" y="139.8" class="st5" width="10.7" height="10.7"/>
			<rect x="5.1" y="129" class="st5" width="10.7" height="10.7"/>
			<rect x="37.2" y="96.8" class="st5" width="10.7" height="10.7"/>
			<rect x="37.2" y="75.4" class="st5" width="10.7" height="10.7"/>
			<rect x="37.2" y="86.1" class="st5" width="10.7" height="10.7"/>
			<rect x="47.9" y="64.7" class="st5" width="10.7" height="10.7"/>
			<rect x="58.5" y="43.2" class="st5" width="10.7" height="10.7"/>
			<rect x="58.5" y="53.9" class="st5" width="10.7" height="10.7"/>
			<rect x="58.5" y="32.5" class="st5" width="10.7" height="10.7"/>
			<rect x="69.2" y="21.7" class="st5" width="10.7" height="10.7"/>
		</g>
	</g>
</g>
</svg>
